<svg xmlns="http://www.w3.org/2000/svg" xmlns:xlink="http://www.w3.org/1999/xlink" xmlns:inkscape="http://www.inkscape.org/namespaces/inkscape" version="1.1" width="582.2889" height="202.2919" viewBox="0 0 582.2889 202.2919">
<g inkscape:groupmode="layer" inkscape:label="&#x0421;&#x043B;&#x043E;&#x0439; 1">
<path transform="matrix(1,0,0,-1,0,202.2919)" d="M.0133 202.411H582.3023V.1191H.0133Z" fill="#ffffff" fill-rule="evenodd"/>
<path transform="matrix(1,0,0,-1,0,202.2919)" d="M276.3717 99.4113 265.7755 99.4533C265.5116 99.4595 265.2279 99.4703 264.9645 99.5049 263.5061 99.6973 258.1974 99.5159 256.2443 99.5743L254.6053 99.7016C254.0809 99.7415 253.425 99.697 252.8796 99.7421 252.1327 99.8039 251.1417 99.7807 250.3721 99.8223 250.0832 99.8379 249.7552 99.8008 249.4704 99.8243L246.9611 99.9437C246.7491 99.9462 246.7349 99.9771 246.5521 99.9867L243.6792 100.1531C242.8569 100.2175 242.0206 100.3309 241.2125 100.3561 240.3133 100.3842 239.3065 100.7345 238.5357 100.1166 237.8446 99.5624 238.1411 99.8178 237.9266 99.3702 238.5893 98.9266 238.8385 98.8775 239.5959 98.6576 240.213 98.4781 240.9058 98.3514 241.5444 98.2236 242.869 97.9583 244.2847 97.7479 245.6113 97.4849 248.3569 96.9401 251.1164 96.5594 253.8921 96.1957L258.1172 95.656C259.5518 95.4573 260.9957 95.3541 262.4355 95.1687 262.7546 95.1276 263.1643 95.0797 263.5143 95.0562 264.5855 94.9839 265.7078 94.8013 266.8003 94.7276L269.5093 94.4793C269.6505 94.4683 269.9025 94.4527 270.0763 94.43 270.6571 94.354 274.3149 94.0493 275.0581 94.0314 275.9545 94.0102 276.9412 93.873 277.8503 93.8251 278.2301 93.8052 278.6219 93.82 278.9946 93.7783L281.3017 93.6621C281.5534 93.6632 281.6192 93.6249 281.8332 93.6187 282.0283 93.6128 282.2545 93.6351 282.4449 93.6139L284.7504 93.4963C285.179 93.4991 285.4607 93.4574 285.9024 93.4571 286.1493 93.4569 286.2003 93.4157 286.4333 93.4129 286.6249 93.4106 286.8596 93.4294 287.045 93.4087 287.3577 93.3735 287.8415 93.361 288.1624 93.3347 288.358 93.3185 288.5788 93.3432 288.7764 93.3327L290.503 93.2519C290.736 93.2491 290.787 93.2083 291.0339 93.2077L292.7602 93.1269C292.9462 93.1167 293.1497 93.1374 293.3357 93.1272L295.6374 93.0464C295.8744 93.0436 295.9469 93.0019 296.2097 93.0027 297.0043 93.0061 297.8456 93.0288 298.6353 93.0053 298.8493 92.9988 298.9154 92.9608 299.1671 92.9619L300.3605 92.9642C300.579 92.9577 300.6697 92.9197 300.9336 92.9211 301.7781 92.9259 302.4763 92.8789 303.3164 92.8806 303.7365 92.8817 304.0245 92.8395 304.4665 92.8395L306.1913 92.7984C307.0463 92.7522 308.2164 92.7986 309.1079 92.7984 309.5042 92.7984 309.782 92.842 310.1343 92.84 310.4904 92.838 310.8467 92.8409 311.2027 92.8395 311.5939 92.838 311.8552 92.8809 312.2705 92.8806 312.6266 92.8806 312.9826 92.8811 313.3386 92.8806 313.7488 92.88 313.9963 92.9222 314.4064 92.9217 314.7625 92.9214 315.1185 92.9217 315.4745 92.9217 315.8872 92.9217 316.1656 92.965 316.542 92.9631L318.1456 92.9614C318.3596 92.9679 318.4257 93.0059 318.6771 93.0047 319.0334 93.0033 319.3897 93.0039 319.746 93.0039 320.8382 93.0039 321.7521 93.2091 322.8267 93.2091 323.223 93.2091 323.5008 93.1654 323.8529 93.1674 324.7724 93.1728 325.728 93.119 326.6402 93.2153 326.9015 93.2431 327.3262 93.2672 327.5935 93.2893 327.9719 93.3205 328.5334 93.3111 329.0349 93.3676 329.2087 93.3871 329.3861 93.3613 329.5607 93.3758 329.828 93.3976 330.2425 93.4313 330.5098 93.4534 330.8882 93.4846 331.4497 93.4756 331.9512 93.5317 332.1249 93.5512 332.3024 93.5254 332.477 93.5399L335.8049 93.7446C336.4807 93.7429 337.5252 93.8438 338.2719 93.865L345.9923 94.3183C346.3413 94.337 346.6522 94.3594 346.9793 94.358 347.2064 94.3574 347.243 94.3906 347.43 94.4005 347.6052 94.4099 347.7776 94.3875 347.9528 94.4116L350.3486 94.5626C350.5229 94.5768 350.7004 94.551 350.8744 94.5706 351.6676 94.6596 352.4655 94.661 353.2649 94.7268 353.4392 94.7412 353.6167 94.7154 353.7907 94.735 354.3423 94.7968 354.8163 94.7789 355.2321 94.8132L356.7129 94.8932C356.6665 94.7962 356.6186 94.5887 356.5743 94.4569L356.2512 93.5478C356.0536 92.9395 355.6069 91.9891 355.3157 91.4023 355.2503 91.2702 355.2109 91.1486 355.1389 91.0043L353.3312 87.3082C352.6543 85.955 351.9082 84.6456 351.2234 83.2961 351.0805 83.0146 350.9254 82.7895 350.7843 82.5026 350.407 81.7345 349.5039 80.1561 349.0296 79.3695L347.5397 76.9161C347.4884 76.8334 347.4672 76.7945 347.417 76.7103L346.6987 75.5804C346.6191 75.4563 346.557 75.3429 346.4836 75.2204L345.992 74.4797C345.9087 74.3542 345.8438 74.2343 345.7545 74.1013L343.2231 70.5127C343.0386 70.2573 342.8802 70.0461 342.8708 69.6325 342.6094 69.6543 342.5533 69.5772 342.2081 69.1455 342.0215 68.9122 341.8441 68.6877 341.8441 68.2773 341.5275 68.2773 341.5757 68.2648 341.3608 68.0213L340.6623 67.1176C340.1544 66.5382 339.7377 65.8888 339.205 65.3301L338.3612 64.3258C338.3178 64.281 338.3436 64.3107 338.2968 64.2665 338.2906 64.2609 338.2815 64.2529 338.2753 64.2472L336.6686 62.4858C336.3415 62.0572 335.7241 61.505 335.3664 61.077L334.1486 59.7892C333.7526 59.4224 333.8563 59.5089 333.6293 59.0355 333.4119 59.0536 333.32 59.1038 333.1457 58.9439 332.6202 58.462 332.1686 57.886 331.6105 57.4396L330.173 56.2073C330.0333 56.0937 329.9139 55.9854 329.7779 55.8632L329.3396 55.5208C329.1851 55.3992 329.0786 55.3195 328.9229 55.1982 328.7659 55.0757 328.6477 54.9626 328.487 54.8538L324.5105 52.0121C322.9418 50.8972 319.4495 48.8282 317.6926 48.1504L316.1903 47.3528C316.0661 47.2972 316.0777 47.2901 315.9439 47.2294 315.8345 47.1798 315.7929 47.1623 315.6854 47.1183L315.1335 46.8899C313.492 46.2538 312.406 45.8614 310.6636 45.2809 309.8435 45.0077 308.0849 44.3761 307.2013 44.1839 305.5411 43.8233 302.3739 42.9151 300.8098 42.9355 300.5487 42.9389 300.4449 42.8641 300.1927 42.8134 298.7408 42.5205 296.8387 42.3933 295.3868 42.2796 294.6804 42.224 293.904 42.2337 293.171 42.2362 292.8589 42.2374 292.7061 42.194 292.4331 42.1937 291.8843 42.1929 291.4795 42.2362 290.9531 42.2362 289.9003 42.2359 288.1463 42.1909 287.1731 42.2348 286.9019 42.2473 286.8134 42.3683 286.5538 42.3961 286.0637 42.4485 285.5344 42.3527 285.0622 42.4242 284.5732 42.4981 284.1185 42.4905 283.6451 42.5268 282.0214 42.6509 279.8425 42.9996 278.244 43.2456 277.34 43.3848 276.4653 43.5158 275.6214 43.6626 273.1487 44.0923 270.6293 44.644 268.2439 45.4037 266.9261 45.8235 265.5967 46.2572 264.3137 46.7719L262.1608 47.6586C261.9797 47.74 261.8144 47.806 261.6143 47.8925L261.1057 48.1232C259.7221 48.7681 258.3694 49.46 257.0117 50.1491 256.8226 50.2449 256.7049 50.3237 256.5051 50.4232 256.3211 50.5148 256.218 50.5896 256.0263 50.6837 254.7831 51.2943 251.9436 53.0161 250.7437 53.78 250.2502 54.0941 249.9055 54.3841 249.3581 54.6537 249.1639 54.7489 249.0596 54.8504 248.9026 54.9785 247.9365 55.7691 246.397 56.92 245.5359 57.6907 245.3879 57.8228 245.2595 57.9104 245.0968 58.032L241.6816 61.0656C241.3378 61.3344 240.9917 61.6674 240.694 62.0084L238.9017 63.995C238.2809 64.6087 237.6944 65.3678 237.0951 66.0081 236.9622 66.1501 236.8769 66.257 236.7456 66.3982 236.1577 67.0306 234.9303 68.6333 234.3762 69.3683L233.4081 70.7003C233.2993 70.8545 233.1862 70.9906 233.0796 71.1524L231.5305 73.3819C230.7923 74.3584 228.9614 77.5307 228.3834 78.6141 228.2896 78.7904 228.2196 78.9052 228.1241 79.094L226.8363 81.6262C225.7954 83.7085 224.9552 85.8594 224.0963 88.0458 223.8843 88.5858 223.7272 89.1573 223.4687 89.6771 222.9602 90.6999 222.5554 91.7844 222.0313 92.7989L221.4445 93.7321C220.8543 94.5252 220.1817 95.3028 219.4081 95.9261 215.7446 98.8775 211.5641 99.6814 207.0802 97.6859 206.922 97.6153 206.7633 97.5172 206.6199 97.448L204.4823 95.9709 203.0012 94.5357C202.9416 94.4649 202.8991 94.4368 202.8393 94.369 201.3568 92.7011 200.2578 90.3192 200.022 88.109 199.8054 86.0831 199.9366 84.2369 200.4755 82.292 200.5722 81.9425 200.73 81.5888 200.8658 81.2449 201.0078 80.8855 201.1674 80.5949 201.329 80.2706L202.4623 78.4877C202.5354 78.3814 202.5354 78.3952 202.6117 78.3085L203.1262 77.7138C203.4924 77.3498 203.8385 77.002 204.2328 76.6845 204.6427 76.3537 205.0733 76.0161 205.5458 75.7794L206.5039 75.3001C209.3372 74.0254 212.4958 74.3165 214.9832 76.1049 215.7973 76.6905 216.4235 77.4196 217.0089 78.228 217.5525 78.9795 218.0466 80.2106 218.0466 81.3798 218.0466 82.599 217.9539 83.3941 217.4706 84.4594 217.3144 84.8038 217.0386 85.3231 216.7322 85.5283 216.5873 85.2265 216.5678 84.8911 216.5678 84.5425 216.4306 84.6153 216.2835 84.7043 216.157 84.7891 215.9589 84.5184 216.0215 84.6683 215.8943 84.1071 215.5042 82.3853 214.8968 80.5173 212.7889 80.5173 211.8864 80.5173 211.282 80.7097 210.6363 81.1576 207.824 83.1084 206.9799 89.8923 211.3974 91.315 211.6684 91.4023 212.0502 91.4769 212.3442 91.5185 214.1878 91.7785 215.8696 91.326 217.3552 90.5462L218.4293 89.9365C218.9058 89.655 219.3163 89.3356 219.7434 88.9914L220.6712 88.1529C221.8796 86.8904 222.3303 86.8388 223.0639 85.0008 223.7638 83.247 224.358 81.4507 225.0876 79.7131 225.3172 79.1663 225.5593 78.7011 225.7858 78.1523 226.1673 77.2291 226.8133 76.0045 227.247 75.1365L228.8203 72.1913C229.0779 71.7194 229.3311 71.2307 229.6293 70.7825L230.4788 69.3729C231.3831 67.8529 232.5824 66.1039 233.6431 64.692L235.8598 61.8157C236.2371 61.3474 236.7351 60.6929 237.1567 60.2782 237.2732 60.1634 237.2984 60.1013 237.4024 59.9902L239.3107 57.9144C239.4153 57.7894 239.4394 57.7466 239.559 57.6286L242.3937 54.8359C242.517 54.7274 242.5782 54.6936 242.7015 54.5689L245.1042 52.4531C245.6844 51.9134 246.3735 51.4565 246.9322 50.9545L247.5788 50.451C248.0037 50.1185 248.4272 49.8155 248.8697 49.4827 249.5327 48.9847 250.2468 48.6315 250.939 48.1839L252.6698 47.1217C252.7894 47.0503 252.8957 46.9868 253.025 46.902 254.1662 46.1517 255.3752 45.5165 256.5164 44.7661 257.6823 43.9994 258.9619 43.4407 260.2154 42.838L263.3272 41.4729C263.4778 41.4128 263.5744 41.3853 263.7156 41.3271L264.9538 40.8402C268.3341 39.4957 271.715 38.5464 275.3623 37.7354 276.6149 37.4567 277.8273 37.2577 279.1128 37.0089 279.7274 36.8898 280.4074 36.8067 281.0721 36.7089 284.6061 36.1885 288.3869 35.9155 292.1692 35.9107 296.1952 35.9056 300.223 36.2047 303.9562 36.832 304.361 36.9 304.6765 36.9666 305.0711 37.0315 307.5231 37.4343 310.1913 38.1019 312.5421 38.884 313.5345 39.2142 314.536 39.528 315.51 39.9002L316.4545 40.2704C318.6283 41.1392 320.7475 42.1413 322.8267 43.1807 323.4223 43.4786 323.9994 43.7672 324.6066 44.0708 325.2614 44.3982 325.707 44.6289 326.1127 45.2344 326.6133 45.1928 326.1954 45.0204 327.0705 45.5088 327.962 46.0069 328.7903 46.6279 329.6429 47.1671L332.4912 49.2069C332.644 49.322 332.7557 49.4169 332.907 49.5303 333.0522 49.6389 333.1675 49.714 333.3175 49.818L334.5097 50.7206C334.6549 50.83 334.7597 50.9253 334.8964 51.0321L335.2895 51.3371C335.6065 51.588 336.2695 51.9809 336.4634 52.2995 336.6009 52.5257 336.4872 52.581 336.7485 52.7125 336.9271 52.8021 337.0266 52.8489 337.195 52.9642 337.3438 53.066 337.4779 53.1626 337.6256 53.2729 338.6256 54.0213 339.5086 54.8923 340.4302 55.7257L340.6224 55.9035C341.4696 56.7196 342.3166 57.5572 343.1134 58.4232L345.1011 60.584C345.1601 60.654 345.2006 60.6858 345.2604 60.7535L345.3724 60.8876C345.585 61.1413 346.1522 61.6079 346.4799 61.9982 346.5952 62.1357 346.7081 62.2202 346.8149 62.3616 346.9337 62.519 346.9856 62.5946 347.133 62.7418L348.7388 64.7096C349.1422 65.2507 349.5852 65.7578 349.9767 66.3058 350.0694 66.4359 350.1737 66.5541 350.2817 66.6989 350.9858 67.6409 351.7121 68.5582 352.383 69.5262L354.5657 72.6012C354.63 72.6908 354.6471 72.7359 354.7117 72.8252 355.479 73.8884 355.693 74.4443 356.2846 75.4415L357.3006 77.2597C358.312 79.0682 359.2928 80.8994 360.3294 82.6923 360.9437 83.7553 362.4454 86.6234 362.8964 87.2308 363.0492 87.4366 363.2879 87.5494 363.4659 87.7294 363.9878 88.2575 364.3551 88.9044 364.9516 89.3656L365.5378 89.8472C366.7243 90.7849 368.5354 91.3609 370.0619 91.3609 371.2113 91.3609 372.2332 91.1648 373.1545 90.7977 373.837 90.5255 374.4584 90.161 375.01 89.6958 375.0165 89.6905 375.0259 89.6825 375.0324 89.6771 375.0389 89.6717 375.0483 89.6641 375.0548 89.6584L375.5965 89.1323C376.6079 88.0795 377.2911 86.5945 377.2911 85.0765 377.2911 83.8757 377.2247 83.3162 376.8647 82.2169 376.6697 81.6214 376.3009 80.9901 375.9596 80.5343 374.811 79.0013 372.8631 78.3057 370.9242 79.0792 369.9811 79.4554 369.1315 80.007 368.659 80.9215 367.9843 82.2271 368.0725 83.8766 368.8869 85.1014 369.25 85.6474 369.7676 86.1049 370.4547 86.2447 371.7935 86.5168 373.5122 85.4289 373.5122 84.0087 373.5122 83.5753 373.4436 83.084 373.3483 82.6937 373.284 82.4301 373.1426 82.002 373.1426 81.7084 373.638 81.8237 373.8946 81.8728 374.3164 82.1775 375.2793 82.8729 376.0999 84.2695 376.0999 85.405 376.0999 86.5596 375.8751 87.2943 375.3369 88.1745 375.2325 88.3449 375.2082 88.3896 375.086 88.5399 374.9122 88.7536 374.7665 88.9483 374.5579 89.1207 374.2968 89.3364 374.0828 89.5589 373.7826 89.742 372.181 90.7194 370.4182 90.8444 368.6338 90.2835 366.8037 89.7083 365.381 88.3953 364.2528 86.9014 362.2666 84.2715 361.6478 80.2307 363.1204 77.1902 363.183 77.061 363.2156 76.9552 363.2922 76.828L363.7086 76.0944C363.9107 75.7528 364.1391 75.4002 364.4042 75.1059 365.3447 74.0616 366.2974 73.2078 367.5929 72.6265 369.8725 71.6034 372.4486 71.409 374.8527 72.1942 376.3199 72.6735 377.7307 73.3833 378.9244 74.3658L380.5875 75.8653C381.8132 77.0771 382.6491 78.6311 383.2883 80.2293 383.8294 81.5822 384.1914 83.3187 384.1914 84.8302 384.1914 85.9561 384.1223 86.927 383.9074 87.9551 383.756 88.6796 383.5491 89.3509 383.2588 90.0173L382.9513 90.6956C382.6446 91.3697 382.2239 91.9712 381.7587 92.5427 381.3639 93.0274 380.9072 93.4696 380.4642 93.918 380.3318 94.0518 380.2399 94.1031 380.1144 94.2253 379.9888 94.3475 379.8825 94.4396 379.7385 94.5476L378.942 95.1066C378.0635 95.6577 377.2074 96.0678 376.1498 96.3397 373.659 96.9797 370.9247 96.7796 368.6513 95.688 368.3441 95.5403 368.1119 95.4062 367.8165 95.2492 367.5203 95.0919 367.2802 94.9093 367.0228 94.7288L366.2935 94.1437C366.0925 93.9421 365.8518 93.649 365.5026 93.6198 365.5446 93.7069 365.5698 93.8815 365.6103 94.0054 365.6602 94.1581 365.6803 94.2664 365.7331 94.4167 365.7824 94.5567 365.8107 94.6378 365.8612 94.7812L366.5883 96.6419C367.4432 98.7795 368.1043 101.1739 366.2121 102.996 366.118 103.0864 366.0463 103.1332 365.9417 103.2185 364.5176 104.3813 362.3394 104.0698 360.633 103.8291 360.1854 103.7662 359.767 103.7713 359.318 103.7066L356.7161 103.4748C355.4232 103.3747 354.0849 103.1956 352.7711 103.1066 351.9159 103.0487 351.0315 102.9101 350.1808 102.8628 349.2978 102.814 348.4111 102.685 347.5502 102.6184 346.6596 102.5493 345.7698 102.4637 344.918 102.3752 344.1725 102.2978 342.9867 102.1601 342.2548 102.1635 341.8427 102.1652 341.3066 102.128 340.9345 102.0872 340.8245 102.0753 340.7204 102.0864 340.6119 102.0813 340.2811 102.0651 339.9035 101.9968 339.5857 101.9982 339.0769 102.0005 338.1477 101.9186 337.5746 101.8735L333.9108 101.5943C333.4323 101.5421 332.7341 101.5458 332.2213 101.4763L329.5627 101.3012C329.1316 101.3057 328.6908 101.2005 328.2789 101.1472L317.363 100.6036C317.0755 100.6053 316.9644 100.5579 316.6659 100.5613L313.9716 100.4216C313.7451 100.389 313.5813 100.3748 313.3511 100.3436 313.196 100.3224 312.863 100.2779 312.6827 100.2725 311.7362 100.2444 310.784 100.2682 309.8863 100.194 309.4577 100.1585 308.9171 100.2373 308.503 100.1806 308.0954 100.1248 307.5644 100.1662 307.0939 100.152 306.8646 100.1452 306.7231 100.1086 306.4382 100.1095 305.9688 100.1112 305.5524 100.1013 305.0887 100.0216 304.8917 99.9879 304.6646 99.9442 304.4259 99.9448 304.1439 99.9456 304.0489 99.9023 303.7691 99.9034L302.3306 99.9045C302.0321 99.9054 301.8838 99.8646 301.6341 99.8614 301.1468 99.8555 300.659 99.8762 300.2298 99.828 299.7927 99.779 299.2467 99.8569 298.8006 99.8201 297.868 99.7427 296.422 99.798 295.4004 99.7577 295.1728 99.7486 294.9352 99.7401 294.6909 99.7401L290.4191 99.699C290.1342 99.7002 289.9928 99.6633 289.7634 99.6565 289.5228 99.6494 289.2654 99.6579 289.0227 99.6579 288.5063 99.6579 288.1018 99.6157 287.6261 99.6168L279.0938 99.5644C278.4883 99.4816 277.5832 99.489 277.0999 99.4226 276.8649 99.3903 276.6112 99.4113 276.3717 99.4113" fill="#bf8700" fill-rule="evenodd"/>
<path transform="matrix(1,0,0,-1,0,202.2919)" d="M275.4683 138.5552C275.4683 137.9693 275.5525 136.9704 275.6302 136.4168 275.7257 135.733 275.8476 135.1063 276.0021 134.4886 276.5384 132.3445 277.1546 130.9637 278.0314 129.0013L279.0238 127.1186C279.1769 126.8663 279.3076 126.633 279.4501 126.3949 279.5973 126.1488 279.7328 125.9323 279.887 125.6814L281.7405 122.8938C281.9146 122.6625 282.0614 122.4689 282.234 122.2373L285.8119 118.0111C285.8652 117.9505 285.8933 117.9221 285.952 117.8637L288.1698 115.4812C288.3504 115.3012 288.5961 115.0546 288.8172 114.9375 288.8172 115.8046 288.5068 116.8362 288.4088 118.0613 288.2483 120.0654 288.3577 122.489 289.133 124.3151 289.1874 124.4429 289.1775 124.4622 289.2141 124.6039 289.5752 126 290.0886 127.2986 290.7204 128.5603 290.9421 129.003 291.1402 129.4747 291.397 129.8965L293.1542 132.9449C293.3436 133.2337 293.491 133.4852 293.6806 133.7737L295.3091 136.2529C295.638 136.7728 296.0609 137.291 296.403 137.8698 296.5805 138.1706 296.7613 138.4274 296.9232 138.7463L298.7847 142.3477C299.2184 143.2137 299.808 144.9408 299.9038 145.993 299.9812 146.8446 300.0195 146.9361 300.1598 147.7908 300.217 148.1403 300.3208 148.5819 300.3191 148.9867 300.3177 149.3844 300.3616 149.8603 300.4121 150.2495 300.5575 151.3726 300.5189 152.7778 300.3517 153.9094 300.3267 154.0789 300.3316 154.2002 300.3157 154.4074 300.2669 155.0438 300.2312 155.7323 300.1309 156.3582 299.827 158.2515 299.3125 160.5438 298.7008 162.3626 298.65 162.5134 298.6149 162.61 298.5698 162.7656L298.1673 163.965C298.0786 164.226 297.9853 164.4953 297.8833 164.7488L297.2738 166.2755C296.9161 167.2773 296.4036 168.2351 295.9688 169.2011L294.5129 172.0168C294.3913 172.2453 294.2697 172.4482 294.1438 172.6747 294.0707 172.8065 294.0199 172.9035 293.9536 173.0186L293.6699 173.5149C293.311 174.1825 292.7614 175.0085 292.3413 175.6777 292.0011 176.2197 291.7052 176.7988 291.1586 177.1648 291.1586 176.4615 291.2199 174.3557 291.1414 173.8137 291.0713 173.3292 290.9923 172.7867 290.994 172.277 290.9976 171.3149 291.056 169.7961 290.9602 168.9021 290.9049 168.387 290.8278 167.8847 290.8298 167.3481 290.8341 166.1737 290.6357 165.3103 290.4432 164.3258 290.2689 163.4349 289.9828 162.5754 289.6628 161.7381 289.5018 161.3177 289.3028 160.9855 289.1614 160.5555 289.11 160.3987 289.1208 160.3913 289.0352 160.2706 288.851 160.0101 288.7305 159.6986 288.5692 159.4225 287.9495 158.3614 287.1366 157.0847 286.2814 156.2063 285.8698 155.7833 285.4998 155.217 285.1121 154.8292 284.8297 154.5469 284.4924 154.3294 284.2064 154.0508L283.5289 153.455C283.4297 153.3563 283.4104 153.3481 283.3072 153.2659 283.214 153.1911 283.1664 153.123 283.0731 153.0482 282.5711 152.646 281.5118 151.7357 281.0755 151.2255 280.7521 150.8471 280.4003 150.51 280.0916 150.1149 279.7098 149.6256 279.32 149.1727 278.9671 148.6517 277.9089 147.0886 277.2748 146.0551 276.5594 144.282 276.2436 143.4997 275.8929 142.4795 275.7997 141.6328 275.6886 140.6222 275.4683 139.5879 275.4683 138.5552" fill="#e42c0e" fill-rule="evenodd"/>
<path transform="matrix(1,0,0,-1,0,202.2919)" d="M291.4872 118.2234C291.4872 115.9177 291.8965 113.8958 292.4872 111.9121 292.5924 111.5589 292.7373 111.1246 292.883 110.8295 293.1803 110.2269 293.6407 109.4746 294.4446 109.4746 295.1989 109.4746 295.6275 109.6356 296.3015 109.9998L296.9637 110.3644C297.1151 110.4406 297.1593 110.4849 297.2954 110.5668L298.9193 111.5303C299.1325 111.653 299.3443 111.7721 299.5605 111.9161 299.6617 111.9838 299.7831 112.0671 299.8732 112.1374 299.9769 112.2185 300.0756 112.2936 300.1127 112.432 299.3825 112.432 298.3221 112.7166 297.7432 113.0607 297.4037 113.2625 297.1885 113.4397 296.9739 113.7702 296.3339 114.7569 296.4753 115.5458 296.8736 116.6156 296.9521 116.8265 297.0459 117.0652 297.1434 117.2908 297.3515 117.7727 297.923 118.8074 298.1585 119.1917L300.371 122.2778C300.9654 123.0778 301.8178 123.9704 302.3481 124.6547L303.2283 125.7049C303.3785 125.8926 303.5146 125.9858 303.675 126.203L304.1065 126.7574C305.3265 128.2547 306.3645 129.7162 306.9462 131.6395 307.1081 132.175 307.0766 132.4074 307.1409 132.8822 307.1818 133.1838 307.506 133.3244 307.506 135.2282 307.506 136.8113 307.1727 138.9325 306.8084 140.4451 306.6219 141.2186 306.2871 141.9194 306.0326 142.6266L305.1374 144.6888C304.941 145.1095 304.0724 147.0665 303.645 147.1808 303.5999 146.9866 303.5066 146.9109 303.5316 146.7003 303.5923 146.1954 303.3471 145.8187 303.1665 145.1948 303.0667 144.8501 302.9978 144.5049 302.9142 144.174 302.8243 143.8197 302.7572 143.4645 302.6307 143.1428L301.8379 141.3893C301.7608 141.2354 301.7137 141.1515 301.648 140.963 301.5329 140.6344 301.4195 140.3192 301.233 140.0635 301.0212 139.7733 300.7151 139.1581 300.5158 138.8503 299.7283 137.6357 299.0441 136.5497 298.2175 135.3569 298.1262 135.2251 298.0534 135.0998 297.9598 134.9575 297.3478 134.024 297.661 134.0433 296.9796 133.35 296.8342 133.2017 296.5819 132.7592 296.4747 132.5815 296.3081 132.304 296.1539 132.0523 296.0053 131.7779 295.8568 131.5035 295.6938 131.2401 295.5535 130.9564 295.1666 130.1737 294.6056 129.1748 294.2629 128.3451 293.976 127.6503 293.614 126.9164 293.294 126.11 293.2311 125.9512 293.1724 125.8055 293.106 125.6406 292.6517 124.5078 291.9518 122.3257 291.8591 121.0963 291.8356 120.7868 291.8835 120.7817 291.7905 120.5076 291.5762 119.8732 291.4872 119.0526 291.4872 118.2234" fill="#e42c0e" fill-rule="evenodd"/>
<text fill="#bf8700" xml:space="preserve" transform="matrix(1 0 -0 1 0 202.2919)" font-size="35.139" font-family="AppetiteNew"><tspan y="-63.4226" x="43.4242 78.77403 101.4389 133.94248 161.56201">&#x0410;&#x043b;&#x0442;&#x044b;&#x043d;</tspan></text>
<text fill="#bf8700" xml:space="preserve" transform="matrix(1 0 -0 1 0 202.2919)" font-size="35.139" font-family="AppetiteNew"><tspan y="-63.4226" x="408.5881 442.3212 464.4589 483.3988 506.0636">&#x041a;&#x0430;&#x0437;&#x0430;&#x043d;</tspan></text>
</g>
</svg>
